<?xml version="1.0" standalone="no"?>
<!DOCTYPE svg PUBLIC "-//W3C//DTD SVG 20010904//EN"
 "http://www.w3.org/TR/2001/REC-SVG-20010904/DTD/svg10.dtd">
<svg version="1.0" xmlns="http://www.w3.org/2000/svg"
 width="128.000000pt" height="128.000000pt" viewBox="0 0 128.000000 128.000000"
 preserveAspectRatio="xMidYMid meet">

<g transform="translate(0.000000,128.000000) scale(0.100000,-0.100000)"
fill="#000000" stroke="none">
<path d="M520 1204 c-63 -35 -199 -105 -302 -156 l-188 -93 0 -101 0 -100 47
-23 c27 -12 76 -38 110 -57 l62 -35 -109 -56 -110 -56 0 -98 0 -98 148 -77
c81 -42 217 -114 303 -160 l157 -83 158 83 c88 46 225 118 307 160 l147 77 0
97 0 97 -110 57 -110 57 42 24 c24 13 72 40 108 59 l65 35 0 98 0 98 -180 91
c-99 50 -236 121 -305 157 l-125 66 -115 -63z m316 -55 c104 -55 233 -121 287
-147 53 -26 97 -49 97 -52 0 -3 -47 -29 -104 -57 -58 -29 -189 -97 -291 -153
-103 -55 -189 -100 -192 -100 -2 0 -1 5 3 12 4 7 3 8 -5 4 -6 -4 -35 6 -64 22
-83 47 -170 93 -351 187 l-168 88 56 24 c31 13 80 36 109 52 28 15 120 63 202
106 83 43 164 87 180 97 17 10 35 18 41 18 6 0 96 -45 200 -101z m-388 -620
l187 -101 128 66 c70 37 133 64 139 60 6 -4 8 -3 5 3 -4 6 20 25 53 42 l59 32
102 -51 c55 -28 100 -53 98 -54 -8 -7 -401 -217 -488 -261 l-92 -45 -127 64
c-124 63 -443 234 -451 241 -2 3 185 102 197 104 2 1 87 -45 190 -100z"/>
</g>
</svg>
